<svg id="Layer_1" data-name="Layer 1" xmlns="http://www.w3.org/2000/svg" viewBox="0 0 100 100"><defs><style>.cls-1{fill:#ef7216;}</style></defs><path class="cls-1" d="M57.18,50A18.91,18.91,0,0,1,76.09,68.91,18.91,18.91,0,0,1,95,50h0A18.91,18.91,0,0,1,76.09,31.09,18.91,18.91,0,0,1,57.18,50Z"/><path class="cls-1" d="M31.09,23.91A18.91,18.91,0,0,1,50,42.82,18.91,18.91,0,0,1,68.91,23.91h0A18.91,18.91,0,0,1,50,5,18.91,18.91,0,0,1,31.09,23.91Z"/><path class="cls-1" d="M31.09,76.09A18.91,18.91,0,0,1,50,95,18.91,18.91,0,0,1,68.91,76.09h0A18.91,18.91,0,0,1,50,57.18,18.91,18.91,0,0,1,31.09,76.09Z"/><path class="cls-1" d="M23.91,68.91h0A18.91,18.91,0,0,1,42.82,50h0A18.91,18.91,0,0,1,23.91,31.09h0A18.91,18.91,0,0,1,5,50H5A18.91,18.91,0,0,1,23.91,68.91Z"/></svg>